<svg width="27" height="32" viewBox="0 0 27 32" fill="none" xmlns="http://www.w3.org/2000/svg">
<g clip-path="url(#clip0_1_35)">
<path fill-rule="evenodd" clip-rule="evenodd" d="M2.86741 9.67708H24.301C24.4732 9.67011 24.6456 9.6841 24.8145 9.71875C25.0937 9.78107 25.35 9.92186 25.554 10.125C25.791 10.3556 25.9401 10.6636 25.9751 10.9948C25.9816 11.12 25.9764 11.2456 25.9597 11.3698L24.1341 30.5495V30.5833V30.6563C24.1221 30.7354 24.1049 30.8137 24.0828 30.8906V30.8906V30.9063C23.986 31.2088 23.7988 31.4734 23.5472 31.6633C23.2955 31.8532 22.9919 31.959 22.6784 31.9661H4.44643C4.33806 31.9608 4.23052 31.9443 4.12549 31.9167C4.02228 31.8854 3.92249 31.8435 3.82766 31.7917V31.7917C3.60386 31.6611 3.41485 31.4771 3.27704 31.2556C3.13923 31.0342 3.05679 30.7819 3.03687 30.5208L1.23961 11.3828C1.2191 11.2397 1.21393 11.0948 1.2242 10.9505C1.26012 10.6239 1.40829 10.3206 1.64271 10.0938C1.85511 9.88434 2.12255 9.74148 2.41296 9.68229C2.56465 9.6554 2.71862 9.64406 2.87255 9.64844L2.86741 9.67708ZM1.45014 2.29167H9.53012V1.5625C9.52884 1.53908 9.52884 1.51561 9.53012 1.49219C9.54629 1.0997 9.70762 0.727782 9.982 0.450521V0.450521C10.27 0.16218 10.6583 0.000349283 11.0629 0L16.0362 0H16.1132C16.5083 0.0200604 16.8806 0.193495 17.1531 0.484375C17.4255 0.775254 17.5772 1.16129 17.5767 1.5625V1.5625V2.29167H25.7928H25.8929C26.1837 2.31579 26.456 2.44595 26.6595 2.65805C26.8629 2.87015 26.9837 3.14983 26.9995 3.44531C26.9995 3.49219 26.9995 3.52865 26.9995 3.57552V6.14323C26.9995 6.32211 26.9294 6.49367 26.8047 6.62016C26.68 6.74665 26.5109 6.81771 26.3345 6.81771H0.664482C0.489443 6.81772 0.321457 6.74773 0.196967 6.62293C0.0724772 6.49812 0.00152227 6.32857 -0.000505209 6.15104V3.52344C-0.00314784 3.49659 -0.00314784 3.46955 -0.000505209 3.44271V3.44271C0.0170851 3.16848 0.124768 2.90815 0.305345 2.70328C0.485922 2.49841 0.728977 2.36083 0.995691 2.3125C1.14631 2.29246 1.29835 2.28549 1.45014 2.29167V2.29167ZM12.2594 16.0156C12.2904 15.7098 12.4321 15.4265 12.6571 15.2205C12.8822 15.0145 13.1745 14.9005 13.4777 14.9005C13.7808 14.9005 14.0732 15.0145 14.2982 15.2205C14.5232 15.4265 14.665 15.7098 14.696 16.0156V25.651C14.665 25.9569 14.5232 26.2402 14.2982 26.4462C14.0732 26.6522 13.7808 26.7662 13.4777 26.7662C13.1745 26.7662 12.8822 26.6522 12.6571 26.4462C12.4321 26.2402 12.2904 25.9569 12.2594 25.651V16.0156ZM18.3521 15.9635C18.3858 15.6514 18.5395 15.3653 18.7798 15.1674C19.0201 14.9694 19.3277 14.8756 19.6359 14.9063C19.7872 14.9049 19.9374 14.9339 20.0776 14.9916C20.2179 15.0493 20.3455 15.1346 20.4531 15.2426C20.5608 15.3505 20.6463 15.479 20.7047 15.6206C20.7632 15.7622 20.7935 15.9142 20.7938 16.0677L20.2803 25.7031C20.2473 26.0156 20.0938 26.3021 19.8533 26.5001C19.6128 26.6982 19.3048 26.7918 18.9965 26.7604C18.8452 26.7618 18.6951 26.7328 18.5548 26.6751C18.4145 26.6173 18.2869 26.532 18.1793 26.4241C18.0717 26.3161 17.9861 26.1877 17.9277 26.046C17.8692 25.9044 17.8389 25.7525 17.8386 25.599L18.3521 15.9635ZM6.41829 16.0677C6.41828 15.9143 6.44824 15.7624 6.50642 15.6208C6.56461 15.4792 6.64988 15.3507 6.7573 15.2427C6.86473 15.1347 6.99218 15.0494 7.1323 14.9917C7.27242 14.9339 7.42243 14.9049 7.57367 14.9063C7.88178 14.8756 8.18939 14.9694 8.42973 15.1674C8.67007 15.3653 8.82375 15.6514 8.85743 15.9635L9.37093 25.599C9.3706 25.7525 9.34033 25.9044 9.28186 26.046C9.22339 26.1877 9.13788 26.3161 9.03025 26.4241C8.92262 26.532 8.795 26.6173 8.65474 26.6751C8.51448 26.7328 8.36434 26.7618 8.21298 26.7604C7.90473 26.7918 7.59675 26.6982 7.35625 26.5001C7.11576 26.3021 6.96225 26.0156 6.92922 25.7031L6.41572 16.0677H6.41829Z" fill="#F15454"/>
</g>
<defs>
<clipPath id="clip0_1_35">
<rect width="27" height="32" fill="white"/>
</clipPath>
</defs>
</svg>
