<svg width="27" height="32" viewBox="0 0 27 32" fill="none" xmlns="http://www.w3.org/2000/svg">
<rect x="0.5" y="0.5" width="26" height="31" rx="2.5" fill="#35B8C0" stroke="#35B8C0"/>
<path d="M15.3027 24.7422C15.3027 25.1888 15.1432 25.5762 14.8242 25.9043C14.5143 26.2324 14.1224 26.3965 13.6484 26.3965C13.1745 26.3965 12.778 26.2324 12.459 25.9043C12.1491 25.5762 11.9941 25.1888 11.9941 24.7422C11.9941 24.2773 12.1536 23.8854 12.4727 23.5664C12.7917 23.2474 13.1836 23.0879 13.6484 23.0879C14.1133 23.0879 14.5052 23.2474 14.8242 23.5664C15.1432 23.8854 15.3027 24.2773 15.3027 24.7422ZM12.1582 7.66602H15.1387L14.291 20.6816H13.0059L12.1582 7.66602Z" fill="white"/>
</svg>
