<svg width="169" height="27" viewBox="0 0 169 27" fill="none" xmlns="http://www.w3.org/2000/svg">
<path d="M20.9521 5.27002H13.3301V26H8.20312V5.27002H0.683594V1.11719H20.9521V5.27002ZM43.8525 14.1226C43.8525 16.5721 43.4196 18.7197 42.5537 20.5654C41.6878 22.4111 40.446 23.8353 38.8281 24.8379C37.2217 25.8405 35.376 26.3418 33.291 26.3418C31.2288 26.3418 29.3888 25.8462 27.771 24.855C26.1532 23.8638 24.8999 22.451 24.0112 20.6167C23.1226 18.771 22.6725 16.6519 22.6611 14.2593V13.0288C22.6611 10.5793 23.0998 8.42594 23.9771 6.56885C24.8657 4.70036 26.1133 3.27051 27.7197 2.2793C29.3376 1.27669 31.1833 0.775391 33.2568 0.775391C35.3304 0.775391 37.1704 1.27669 38.7769 2.2793C40.3947 3.27051 41.6423 4.70036 42.5195 6.56885C43.4082 8.42594 43.8525 10.5736 43.8525 13.0117V14.1226ZM38.6572 12.9946C38.6572 10.3856 38.1901 8.40316 37.2559 7.04736C36.3216 5.69157 34.9886 5.01367 33.2568 5.01367C31.5365 5.01367 30.2091 5.68587 29.2749 7.03027C28.3407 8.36328 27.8678 10.3229 27.8564 12.9092V14.1226C27.8564 16.6632 28.3236 18.6343 29.2578 20.0356C30.1921 21.437 31.5365 22.1377 33.291 22.1377C35.0114 22.1377 36.333 21.4655 37.2559 20.1211C38.1787 18.7653 38.6458 16.7943 38.6572 14.208V12.9946ZM47.5781 26V1.11719H55.2344C57.4219 1.11719 59.3758 1.61279 61.0962 2.604C62.828 3.58382 64.1781 4.98519 65.1465 6.80811C66.1149 8.61963 66.5991 10.6818 66.5991 12.9946V14.1396C66.5991 16.4525 66.1206 18.509 65.1636 20.3091C64.2179 22.1092 62.8792 23.5049 61.1475 24.4961C59.4157 25.4873 57.4618 25.9886 55.2856 26H47.5781ZM52.7051 5.27002V21.8813H55.1831C57.1883 21.8813 58.7207 21.2262 59.7803 19.916C60.8398 18.6058 61.381 16.7316 61.4038 14.2935V12.9775C61.4038 10.4482 60.8797 8.53418 59.8315 7.23535C58.7834 5.92513 57.251 5.27002 55.2344 5.27002H52.7051ZM90.7812 14.1226C90.7812 16.5721 90.3483 18.7197 89.4824 20.5654C88.6165 22.4111 87.3747 23.8353 85.7568 24.8379C84.1504 25.8405 82.3047 26.3418 80.2197 26.3418C78.1576 26.3418 76.3175 25.8462 74.6997 24.855C73.0819 23.8638 71.8286 22.451 70.9399 20.6167C70.0513 18.771 69.6012 16.6519 69.5898 14.2593V13.0288C69.5898 10.5793 70.0285 8.42594 70.9058 6.56885C71.7944 4.70036 73.042 3.27051 74.6484 2.2793C76.2663 1.27669 78.112 0.775391 80.1855 0.775391C82.2591 0.775391 84.0991 1.27669 85.7056 2.2793C87.3234 3.27051 88.571 4.70036 89.4482 6.56885C90.3369 8.42594 90.7812 10.5736 90.7812 13.0117V14.1226ZM85.5859 12.9946C85.5859 10.3856 85.1188 8.40316 84.1846 7.04736C83.2503 5.69157 81.9173 5.01367 80.1855 5.01367C78.4652 5.01367 77.1379 5.68587 76.2036 7.03027C75.2694 8.36328 74.7965 10.3229 74.7852 12.9092V14.1226C74.7852 16.6632 75.2523 18.6343 76.1865 20.0356C77.1208 21.437 78.4652 22.1377 80.2197 22.1377C81.9401 22.1377 83.2617 21.4655 84.1846 20.1211C85.1074 18.7653 85.5745 16.7943 85.5859 14.208V12.9946ZM117.271 20.873H108.281L106.572 26H101.121L110.383 1.11719H115.134L124.448 26H118.997L117.271 20.873ZM109.666 16.7202H115.886L112.759 7.40625L109.666 16.7202ZM131.899 17.2329V26H126.772V1.11719H136.479C138.348 1.11719 139.989 1.45898 141.401 2.14258C142.826 2.82617 143.919 3.80029 144.683 5.06494C145.446 6.3182 145.828 7.74805 145.828 9.35449C145.828 11.7926 144.99 13.7181 143.315 15.1309C141.652 16.5322 139.345 17.2329 136.394 17.2329H131.899ZM131.899 13.0801H136.479C137.835 13.0801 138.866 12.7611 139.573 12.123C140.291 11.485 140.649 10.5736 140.649 9.38867C140.649 8.1696 140.291 7.18408 139.573 6.43213C138.855 5.68018 137.864 5.29281 136.599 5.27002H131.899V13.0801ZM154.492 17.2329V26H149.365V1.11719H159.072C160.941 1.11719 162.581 1.45898 163.994 2.14258C165.418 2.82617 166.512 3.80029 167.275 5.06494C168.039 6.3182 168.42 7.74805 168.42 9.35449C168.42 11.7926 167.583 13.7181 165.908 15.1309C164.245 16.5322 161.938 17.2329 158.987 17.2329H154.492ZM154.492 13.0801H159.072C160.428 13.0801 161.459 12.7611 162.166 12.123C162.883 11.485 163.242 10.5736 163.242 9.38867C163.242 8.1696 162.883 7.18408 162.166 6.43213C161.448 5.68018 160.457 5.29281 159.192 5.27002H154.492V13.0801Z" fill="#5A5A5A"/>
</svg>
